<svg width="200" height="269" viewBox="0 0 200 269" fill="none" xmlns="http://www.w3.org/2000/svg">
<rect width="200" height="269" rx="6" fill="#111115"/>
<path d="M109.26 212.66C97.38 212.66 86.8934 210.607 77.8 206.5C68.7067 202.247 61.52 196.527 56.24 189.34C51.1067 182.153 48.54 174.307 48.54 165.8C48.54 160.52 49.3467 155.9 50.96 151.94C52.5734 147.833 54.7734 144.313 57.56 141.38C60.3467 138.3 63.5 135.66 67.02 133.46C70.6867 131.113 74.4267 129.06 78.24 127.3L76.92 135.44C73.9867 134.12 71.2 132.433 68.56 130.38C65.92 128.327 63.5 125.833 61.3 122.9C59.2467 119.967 57.6334 116.667 56.46 113C55.2867 109.333 54.7 105.3 54.7 100.9C54.7 92.98 57.12 85.7933 61.96 79.34C66.8 72.8867 73.3267 67.7533 81.54 63.94C89.9 59.98 99.14 58 109.26 58C119.38 58 128.547 59.98 136.76 63.94C144.973 67.7533 151.5 72.8867 156.34 79.34C161.18 85.7933 163.6 92.98 163.6 100.9C163.6 105.593 162.94 109.847 161.62 113.66C160.3 117.327 158.54 120.627 156.34 123.56C154.287 126.347 151.94 128.693 149.3 130.6C146.66 132.507 144.02 134.12 141.38 135.44L140.72 128.18C145.12 129.94 149.08 132.14 152.6 134.78C156.267 137.273 159.42 140.133 162.06 143.36C164.7 146.587 166.68 150.107 168 153.92C169.467 157.587 170.2 161.547 170.2 165.8C170.2 174.307 167.56 182.153 162.28 189.34C157 196.527 149.813 202.247 140.72 206.5C131.627 210.607 121.14 212.66 109.26 212.66ZM109.26 190.66C116.447 190.66 122.9 189.56 128.62 187.36C134.34 185.16 138.813 182.227 142.04 178.56C145.413 174.747 147.1 170.493 147.1 165.8C147.1 160.96 145.413 156.78 142.04 153.26C138.667 149.74 134.12 146.953 128.4 144.9C122.68 142.847 116.3 141.82 109.26 141.82C102.22 141.82 95.7667 142.847 89.9 144.9C84.18 146.953 79.6334 149.74 76.26 153.26C72.8867 156.78 71.2 160.96 71.2 165.8C71.2 170.493 72.8867 174.747 76.26 178.56C79.6334 182.227 84.18 185.16 89.9 187.36C95.62 189.56 102.073 190.66 109.26 190.66ZM109.26 121.8C115.127 121.8 120.333 120.847 124.88 118.94C129.573 117.033 133.313 114.467 136.1 111.24C138.887 107.867 140.28 104.053 140.28 99.8C140.28 96.1333 138.887 92.8333 136.1 89.9C133.46 86.82 129.793 84.4 125.1 82.64C120.407 80.88 115.127 80 109.26 80C103.247 80 97.82 80.88 92.98 82.64C88.14 84.4 84.3267 86.82 81.54 89.9C78.9 92.8333 77.58 96.1333 77.58 99.8C77.58 104.053 78.9734 107.867 81.76 111.24C84.5467 114.467 88.36 117.033 93.2 118.94C98.04 120.847 103.393 121.8 109.26 121.8Z" fill="white"/>
<path fill-rule="evenodd" clip-rule="evenodd" d="M200 134H0V129H200V134Z" fill="black"/>
</svg>
