<svg width="200" height="269" viewBox="0 0 200 269" fill="none" xmlns="http://www.w3.org/2000/svg">
<rect width="200" height="269" rx="6" fill="#EDEDF4"/>
<path d="M103.68 214.2C89.4534 214.2 77.28 210.827 67.16 204.08C57.1867 197.333 49.56 188.02 44.28 176.14C39.1467 164.113 36.58 150.4 36.58 135C36.58 119.6 39.1467 105.96 44.28 94.08C49.56 82.0533 57.1867 72.6667 67.16 65.92C77.28 59.1733 89.4534 55.8 103.68 55.8C117.76 55.8 129.64 59.1733 139.32 65.92C149.147 72.6667 156.553 82.0533 161.54 94.08C166.673 105.96 169.24 119.6 169.24 135C169.24 150.4 166.673 164.113 161.54 176.14C156.553 188.02 149.147 197.333 139.32 204.08C129.64 210.827 117.76 214.2 103.68 214.2ZM103.68 192.64C117.173 192.64 127.587 187.653 134.92 177.68C142.4 167.56 146.14 153.333 146.14 135C146.14 116.667 142.4 102.513 134.92 92.54C127.587 82.42 117.173 77.36 103.68 77.36C89.8934 77.36 79.04 82.42 71.12 92.54C63.3467 102.513 59.46 116.667 59.46 135C59.46 153.333 63.3467 167.56 71.12 177.68C79.04 187.653 89.8934 192.64 103.68 192.64Z" fill="black"/>
<path fill-rule="evenodd" clip-rule="evenodd" d="M200 134H0V129H200V134Z" fill="white"/>
</svg>
