<svg width="200" height="269" viewBox="0 0 200 269" fill="none" xmlns="http://www.w3.org/2000/svg">
<rect width="200" height="269" rx="6" fill="black" fill-opacity="0.05"/>
<path d="M54.8 212L47.54 193.96L99.46 146.66C103.42 142.7 107.453 138.74 111.56 134.78C115.667 130.82 119.407 126.86 122.78 122.9C126.3 118.94 129.087 115.053 131.14 111.24C133.34 107.28 134.44 103.54 134.44 100.02C134.44 95.3267 133.34 91.3667 131.14 88.14C129.087 84.7667 126.007 82.2 121.9 80.44C117.793 78.68 112.733 77.8 106.72 77.8C101.44 77.8 96.0867 78.8267 90.66 80.88C85.38 82.9333 80.3933 86.0867 75.7 90.34C71.0067 94.4467 66.7533 99.8 62.94 106.4L45.56 94.3C49.6667 86.6733 54.8 80 60.96 74.28C67.2667 68.4133 74.4533 63.8667 82.52 60.64C90.7333 57.4133 99.7533 55.8 109.58 55.8C119.847 55.8 128.647 57.6333 135.98 61.3C143.313 64.82 148.96 69.7333 152.92 76.04C156.88 82.2 158.86 89.3133 158.86 97.38C158.86 102.367 157.98 107.207 156.22 111.9C154.46 116.593 151.967 121.213 148.74 125.76C145.66 130.16 142.14 134.413 138.18 138.52C134.367 142.627 130.333 146.733 126.08 150.84C121.827 154.947 117.573 158.907 113.32 162.72L75.7 198.14L72.18 189.12H163.7V212H54.8Z" fill="black"/>
</svg>
