<svg width="200" height="269" viewBox="0 0 200 269" fill="none" xmlns="http://www.w3.org/2000/svg">
<rect width="200" height="269" rx="6" fill="black" fill-opacity="0.05"/>
<path d="M98.34 214.2C84.5533 214.2 72.82 211.193 63.14 205.18C53.6067 199.167 45.4667 191.32 38.72 181.64L57.2 167.56C60.1333 171.52 63.5067 175.48 67.32 179.44C71.28 183.4 75.8267 186.7 80.96 189.34C86.0933 191.98 91.8867 193.3 98.34 193.3C104.647 193.3 110.807 192.347 116.82 190.44C122.833 188.387 127.747 185.233 131.56 180.98C135.52 176.58 137.5 170.86 137.5 163.82C137.5 157.807 135.813 152.967 132.44 149.3C129.213 145.487 125.107 142.773 120.12 141.16C115.133 139.4 110.073 138.52 104.94 138.52C102.007 138.52 99.22 138.667 96.58 138.96C94.0867 139.253 91.6667 139.693 89.32 140.28C87.12 140.867 84.92 141.6 82.72 142.48L74.8 127.3L131.12 73.18L130.46 80H47.3V58H153.12L157.52 72.08L98.34 129.72L92.84 118.72C94.6 118.133 97.3133 117.693 100.98 117.4C104.647 116.96 108.093 116.74 111.32 116.74C117.92 116.74 124.153 117.913 130.02 120.26C135.887 122.46 141.093 125.613 145.64 129.72C150.333 133.827 154 138.667 156.64 144.24C159.28 149.667 160.6 155.607 160.6 162.06C160.6 172.473 157.813 181.64 152.24 189.56C146.667 197.333 139.187 203.42 129.8 207.82C120.413 212.073 109.927 214.2 98.34 214.2Z" fill="black"/>
</svg>
