<svg width="200" height="269" viewBox="0 0 200 269" fill="none" xmlns="http://www.w3.org/2000/svg">
<rect width="200" height="269" rx="6" fill="#EDEDF3"/>
<path d="M97.12 213.54C85.9733 213.54 75.6333 211.267 66.1 206.72C56.5667 202.027 48.5733 196.087 42.12 188.9L54.66 171.08C61.5533 177.533 68.5933 182.593 75.78 186.26C82.9667 189.927 90.08 191.76 97.12 191.76C104.6 191.76 111.273 190.513 117.14 188.02C123.153 185.38 127.847 181.713 131.22 177.02C134.74 172.18 136.5 166.533 136.5 160.08C136.5 154.507 134.74 149.447 131.22 144.9C127.847 140.353 123.3 136.76 117.58 134.12C112.007 131.48 105.773 130.16 98.88 130.16C93.3067 130.16 88.2467 130.673 83.7 131.7C79.1533 132.727 74.9733 133.973 71.16 135.44C67.4933 136.76 64.12 138.08 61.04 139.4L48.5 123.34L57.52 58H147.72V80H72.48L76 75.82L68.74 124.66L64.34 118.28C65.9533 116.813 68.8867 115.42 73.14 114.1C77.3933 112.633 82.16 111.46 87.44 110.58C92.8667 109.553 98.0733 109.04 103.06 109.04C113.327 109.04 122.713 111.167 131.22 115.42C139.727 119.527 146.547 125.393 151.68 133.02C156.813 140.647 159.38 149.52 159.38 159.64C159.38 169.76 156.593 178.927 151.02 187.14C145.447 195.207 137.967 201.66 128.58 206.5C119.34 211.193 108.853 213.54 97.12 213.54Z" fill="black"/>
<path fill-rule="evenodd" clip-rule="evenodd" d="M200 134H0V129H200V134Z" fill="white"/>
</svg>
