<svg width="200" height="269" viewBox="0 0 200 269" fill="none" xmlns="http://www.w3.org/2000/svg">
<rect width="200" height="269" rx="6" fill="#EDEDF3"/>
<path d="M100.62 212C92.26 212 84.4133 210.68 77.08 208.04C69.7467 205.4 63.2933 201.733 57.72 197.04C52.2933 192.2 47.9667 186.48 44.74 179.88C41.66 173.133 40.12 165.727 40.12 157.66C40.12 151.647 41 145.707 42.76 139.84C44.52 133.973 46.94 128.107 50.02 122.24C53.1 116.227 56.6933 110.287 60.8 104.42C65.0533 98.5533 69.6 92.76 74.44 87.04L101.28 55.36H128.34L129.22 57.56L92.7 98.26C87.5667 104.273 82.7267 110.58 78.18 117.18C73.6333 123.78 69.7467 130.38 66.52 136.98C63.44 143.433 61.3867 149.373 60.36 154.8L48.04 137.42C51.12 133.02 54.64 128.84 58.6 124.88C62.56 120.92 67.0333 117.4 72.02 114.32C77.0067 111.24 82.4333 108.82 88.3 107.06C94.3133 105.3 100.84 104.42 107.88 104.42C117.853 104.42 126.873 106.62 134.94 111.02C143.153 115.42 149.68 121.433 154.52 129.06C159.507 136.687 162 145.267 162 154.8C162 165.213 159.433 174.82 154.3 183.62C149.313 192.273 142.2 199.167 132.96 204.3C123.867 209.433 113.087 212 100.62 212ZM100.62 190C107.66 190 114.04 188.753 119.76 186.26C125.627 183.62 130.32 179.88 133.84 175.04C137.36 170.053 139.12 164.26 139.12 157.66C139.12 152.527 137.507 147.613 134.28 142.92C131.053 138.08 126.58 134.12 120.86 131.04C115.14 127.96 108.54 126.42 101.06 126.42C93.2867 126.42 86.54 127.887 80.82 130.82C75.1 133.753 70.7 137.567 67.62 142.26C64.54 146.953 63 152.013 63 157.44C63 163.16 64.54 168.513 67.62 173.5C70.7 178.487 75.0267 182.52 80.6 185.6C86.1733 188.533 92.8467 190 100.62 190Z" fill="black"/>
<path fill-rule="evenodd" clip-rule="evenodd" d="M200 134H0V129H200V134Z" fill="white"/>
</svg>
