<svg width="200" height="269" viewBox="0 0 200 269" fill="none" xmlns="http://www.w3.org/2000/svg">
<rect width="200" height="269" rx="6" fill="black" fill-opacity="0.05"/>
<path d="M89.2201 212L88.3401 209.8L145.98 112.56L145.1 129.06C141.58 133.167 137.913 137.053 134.1 140.72C130.433 144.387 126.547 147.54 122.44 150.18C118.333 152.82 113.933 154.873 109.24 156.34C104.547 157.807 99.4867 158.54 94.0601 158.54C84.6734 158.54 76.1667 156.34 68.5401 151.94C60.9134 147.393 54.8267 141.453 50.2801 134.12C45.8801 126.787 43.6801 118.867 43.6801 110.36C43.6801 99.6533 46.3934 90.1933 51.8201 81.98C57.2467 73.7667 64.5801 67.3133 73.8201 62.62C83.0601 57.78 93.2534 55.36 104.4 55.36C112.32 55.36 119.8 56.68 126.84 59.32C133.88 61.96 140.113 65.6267 145.54 70.32C150.967 74.8667 155.22 80.2933 158.3 86.6C161.38 92.76 162.92 99.5067 162.92 106.84C162.92 111.387 162.113 116.227 160.5 121.36C159.033 126.493 156.907 131.92 154.12 137.64C151.48 143.36 148.473 149.3 145.1 155.46C141.873 161.473 138.5 167.56 134.98 173.72L113.2 212H89.2201ZM101.76 136.32C109.387 136.32 115.987 135 121.56 132.36C127.28 129.72 131.68 126.2 134.76 121.8C137.84 117.4 139.38 112.707 139.38 107.72C139.38 102.293 137.84 97.3067 134.76 92.76C131.827 88.0667 127.573 84.4 122 81.76C116.427 78.9733 109.827 77.58 102.2 77.58C95.8934 77.58 90.0267 78.8267 84.6001 81.32C79.3201 83.6667 75.0667 87.04 71.8401 91.44C68.6134 95.84 67.0001 101.193 67.0001 107.5C67.0001 112.34 68.4667 116.96 71.4001 121.36C74.3334 125.76 78.4401 129.353 83.7201 132.14C89.0001 134.927 95.0134 136.32 101.76 136.32Z" fill="black"/>
</svg>
